<svg xmlns="http://www.w3.org/2000/svg" width="58.818" height="58.818" viewBox="0 0 58.818 58.818"><defs><style>.a{fill:#ea6625;}</style></defs><path class="a" d="M58.818,46.453A13.787,13.787,0,0,1,58.4,49.4a16.6,16.6,0,0,1-.877,2.862q-.877,2.089-5.1,4.428a15.486,15.486,0,0,1-9.963,1.984,18.062,18.062,0,0,1-2.4-.522q-1.337-.376-1.984-.606t-2.318-.856q-1.671-.627-2.047-.752A37.837,37.837,0,0,1,26.4,52.468a61.971,61.971,0,0,1-11.049-9,61.971,61.971,0,0,1-9-11.049,37.838,37.838,0,0,1-3.467-7.311q-.125-.376-.752-2.047t-.856-2.318q-.23-.647-.606-1.984a18.051,18.051,0,0,1-.522-2.4A16.094,16.094,0,0,1,0,14.161a16.2,16.2,0,0,1,2.13-7.77q2.339-4.219,4.428-5.1A16.6,16.6,0,0,1,9.42.418,13.787,13.787,0,0,1,12.365,0a2.338,2.338,0,0,1,.877.125q.752.251,2.214,3.175.459.794,1.253,2.256t1.462,2.653q.668,1.191,1.295,2.235.125.167.731,1.044a11.673,11.673,0,0,1,.9,1.483,2.725,2.725,0,0,1,.292,1.191A3.467,3.467,0,0,1,20.2,16.25a20.361,20.361,0,0,1-2.59,2.3,25.15,25.15,0,0,0-2.59,2.214,3.182,3.182,0,0,0-1.191,1.922,2.822,2.822,0,0,0,.209.94,9.12,9.12,0,0,0,.355.856q.146.292.585,1t.48.794a43.849,43.849,0,0,0,7.269,9.817,43.848,43.848,0,0,0,9.817,7.269q.084.042.794.48t1,.585a9.115,9.115,0,0,0,.856.355,2.822,2.822,0,0,0,.94.209A3.182,3.182,0,0,0,38.056,43.8a25.155,25.155,0,0,0,2.214-2.59,20.357,20.357,0,0,1,2.3-2.59,3.467,3.467,0,0,1,2.089-1.191,2.725,2.725,0,0,1,1.191.292,11.665,11.665,0,0,1,1.483.9q.877.606,1.044.731,1.044.627,2.235,1.295t2.653,1.462q1.462.794,2.256,1.253,2.924,1.462,3.175,2.214a2.338,2.338,0,0,1,.125.877Zm0,0"/></svg>