<svg xmlns="http://www.w3.org/2000/svg" width="76.765" height="53.795" viewBox="0 0 76.765 53.795"><defs><style>.a{fill:#ea6625;}</style></defs><g transform="translate(0 0)"><path class="a" d="M20.938,392.848H97.7v-5.583H20.938Z" transform="translate(-20.938 -339.053)"/><path class="a" d="M122.465,136.3q.022-.363.036-.726c0-.107.006-.215.009-.323,0-.134.009-.269.012-.4,0-.1,0-.208,0-.312,0-.138,0-.275,0-.413,0-.1,0-.2,0-.3,0-.142,0-.284-.006-.425,0-.1-.007-.206-.01-.309,0-.138-.008-.277-.014-.415,0-.1-.011-.205-.017-.308-.007-.138-.014-.276-.023-.414-.007-.107-.016-.214-.024-.322-.01-.133-.019-.267-.031-.4-.009-.1-.02-.206-.03-.309-.013-.137-.025-.275-.04-.412-.011-.1-.024-.2-.035-.3-.016-.14-.032-.28-.05-.42-.013-.1-.028-.2-.041-.295-.019-.141-.038-.282-.059-.422-.014-.094-.03-.187-.045-.281-.023-.145-.045-.29-.07-.435-.015-.087-.032-.173-.048-.26-.027-.151-.054-.3-.083-.453-.016-.083-.034-.166-.051-.249-.031-.154-.062-.309-.095-.463-.016-.074-.034-.148-.05-.221-.036-.163-.072-.326-.111-.488-.017-.07-.035-.139-.052-.209-.041-.166-.081-.332-.124-.5-.017-.066-.036-.131-.053-.2-.045-.167-.089-.334-.136-.5l-1.085-3.235c-.064-.166-.132-.334-.2-.5-.017-.043-.033-.084-.051-.127q-.263-.64-.567-1.3l-.056-.119c-.083-.178-.166-.356-.253-.535l-1.47-2.69c-.086-.142-.175-.282-.263-.423s-.156-.254-.236-.379c-.1-.155-.2-.306-.3-.459-.072-.109-.143-.22-.217-.328-.111-.163-.226-.323-.339-.484-.067-.095-.132-.191-.2-.285-.123-.169-.248-.336-.374-.5-.062-.082-.122-.166-.184-.248-.133-.174-.269-.344-.405-.514-.057-.072-.113-.146-.171-.217-.148-.183-.3-.362-.451-.541-.048-.057-.095-.115-.143-.171-.162-.188-.326-.373-.492-.556-.04-.045-.08-.091-.12-.136-.177-.195-.357-.386-.538-.576l-.091-.1q-.288-.3-.583-.589l-.063-.064q-.3-.294-.605-.578l-.057-.055q-.315-.292-.637-.574l-.042-.038q-.337-.3-.681-.58l-.013-.011a31.716,31.716,0,0,0-6.056-3.947l-.009,0q-.373-.186-.75-.361l-.066-.032q-.391-.181-.788-.352l-.039-.017c-.239-.1-.48-.2-.722-.3l-.117-.048c-.234-.092-.469-.18-.705-.267l-.144-.054c-.255-.092-.511-.18-.768-.266l-.091-.031c-.242-.08-.487-.155-.731-.229l-.138-.043c-.225-.067-.452-.13-.679-.192l-.2-.056c-.222-.059-.445-.113-.669-.168l-.219-.055c-.187-.044-.376-.083-.564-.124-.111-.024-.222-.051-.334-.074-.181-.037-.364-.07-.546-.1-.12-.022-.239-.047-.359-.068-.212-.037-.426-.07-.64-.1-.091-.014-.182-.03-.273-.044q-.458-.067-.92-.12a.652.652,0,0,1-.37-1.124,4.8,4.8,0,1,0-6.551,0,.652.652,0,0,1,.194.588.672.672,0,0,1-.023.091.652.652,0,0,1-.543.442c-17.239,2-29.722,17.5-28.655,35.433C79.42,136.284,101.29,136.294,122.465,136.3Z" transform="translate(-51.789 -91.413)"/></g></svg>