<svg xmlns="http://www.w3.org/2000/svg" width="44.824" height="61.182" viewBox="0 0 44.824 61.182"><defs><style>.a{fill:#ea6625;}</style></defs><g transform="translate(-652.2 -2718)"><path class="a" d="M49.4,67.6c-.773,1.352-1.61,2.64-2.447,3.864,5.41,1.224,8.63,3.349,8.63,4.959,0,2.383-7.149,5.989-17.968,5.989s-17.968-3.607-17.968-5.989c0-1.61,3.22-3.671,8.63-4.959-.837-1.224-1.674-2.512-2.447-3.864C19.644,69.21,15.2,72.108,15.2,76.423c0,6.827,11.27,10.433,22.412,10.433S60.024,83.25,60.024,76.423C60.024,72.108,55.58,69.21,49.4,67.6Z" transform="translate(637 2692.325)"/><path class="a" d="M42.278,51.446C46.851,44.683,57.8,27.746,57.8,20.082a17.55,17.55,0,1,0-35.1,0c0,7.664,11.013,24.6,15.585,31.364A2.472,2.472,0,0,0,42.278,51.446ZM32.1,20.082A8.179,8.179,0,1,1,40.282,28.2,8.191,8.191,0,0,1,32.1,20.082Z" transform="translate(634.33 2715.5)"/></g></svg>