<svg xmlns="http://www.w3.org/2000/svg" width="49.885" height="49.885" viewBox="0 0 49.885 49.885"><defs><style>.a{fill:#ea6625;}</style></defs><path class="a" d="M51.97,21.264h-14.4V5.915A1.915,1.915,0,0,0,35.659,4H23.188a1.915,1.915,0,0,0-1.915,1.915V21.264H5.915A1.915,1.915,0,0,0,4,23.188V35.659a1.915,1.915,0,0,0,1.915,1.915H21.264v14.4a1.915,1.915,0,0,0,1.924,1.915H35.659a1.915,1.915,0,0,0,1.915-1.915v-14.4h14.4a1.915,1.915,0,0,0,1.915-1.915V23.188a1.915,1.915,0,0,0-1.915-1.924Z" transform="translate(-4 -4)"/></svg>