<svg xmlns="http://www.w3.org/2000/svg" width="72.348" height="49.885" viewBox="0 0 72.348 49.885"><defs><style>.a{fill:#ea6625;fill-rule:evenodd;}</style></defs><path class="a" d="M121.029,239.674h-25.4s-2.348.747-2.241-7.045S101.5,216.3,101.5,216.3c-1.708-16.651,5.657-15.9,19.533-15.8,13.769-.213,21.24-.854,19.426,15.8,0,0,8.112,8.539,8.219,16.331s-2.241,7.045-2.241,7.045Zm-36.4-27.751c-1.174-21.24,21.454-22.308,36.077-22.094,14.73-.213,37.358.854,36.183,22.094-3.736,1.281-9.073,1.708-14.943,1.6.747-14.943-7.045-14.3-20.92-13.982-13.876-.213-21.667-.854-20.92,13.982C94.025,213.63,88.475,213.2,84.632,211.922Zm36.4,3.629a4.483,4.483,0,1,1-4.483,4.483A4.51,4.51,0,0,1,121.029,215.551Zm0-6.191a10.727,10.727,0,1,1-10.78,10.674A10.7,10.7,0,0,1,121.029,209.361Z" transform="translate(-84.588 -189.808)"/></svg>