<svg xmlns="http://www.w3.org/2000/svg" width="48.385" height="57.702" viewBox="0 0 48.385 57.702"><defs><style>.a{fill:#ea6625;fill-rule:evenodd;}</style></defs><g transform="translate(0 0)"><path class="a" d="M669.253,1680.78v38.773a4.629,4.629,0,0,1-4.615,4.615H625.483a4.628,4.628,0,0,1-4.615-4.615V1680.78Zm-24.719,4.319a16.379,16.379,0,1,1-16.379,16.379A16.379,16.379,0,0,1,644.534,1685.1Z" transform="translate(-620.868 -1666.467)"/><path class="a" d="M625.483,109.374h39.154a4.629,4.629,0,0,1,4.615,4.615v7.67H620.868v-7.67A4.629,4.629,0,0,1,625.483,109.374Zm1.674,4.207h7.556a2.314,2.314,0,0,1,2.308,2.308v.343a2.314,2.314,0,0,1-2.308,2.308h-7.556a2.314,2.314,0,0,1-2.308-2.308v-.343A2.315,2.315,0,0,1,627.157,113.581Zm30.751.564h6.348v4.132h-6.348Zm-17.206,0h4.132v4.132H640.7Zm5.185,0h4.132v4.132h-4.132Z" transform="translate(-620.868 -109.374)"/><path class="a" d="M1734.139,2454.524a13.652,13.652,0,1,1-9.652,4A13.61,13.61,0,0,1,1734.139,2454.524Zm-12.44,14.846a39.312,39.312,0,0,0,24.879,0c.037-.393.057-.792.057-1.2a12.5,12.5,0,0,0-24.992,0C1721.643,2468.577,1721.663,2468.977,1721.7,2469.37Z" transform="translate(-1710.473 -2433.163)"/></g></svg>